<svg width="256" height="256" viewBox="0 0 256 256" fill="none" xmlns="http://www.w3.org/2000/svg">
<path d="M251.585 211.862H4.41398C1.97649 211.862 0 209.885 0 207.448V48.5518C0 46.1143 1.97649 44.1378 4.41398 44.1378H251.586C254.023 44.1378 255.999 46.1143 255.999 48.5518V207.448C255.999 209.885 254.023 211.862 251.585 211.862Z" fill="#41479B"/>
<path d="M255.999 48.5518C255.999 46.1143 254.023 44.1378 251.585 44.1378H231.838L150.068 97.7111V44.1378H105.93V97.7111L24.1609 44.1378H4.41398C1.97649 44.1378 0 46.1143 0 48.5518V59.9673L70.1542 105.931H0V150.068H70.1542L0 196.032V207.448C0 209.885 1.97649 211.862 4.41398 211.862H24.1614L105.931 158.288V211.862H150.069V158.288L231.839 211.862H251.586C254.024 211.862 256 209.885 256 207.448V196.032L185.846 150.069H255.999V105.931H185.845L255.999 59.9673V48.5518Z" fill="#F5F5F5"/>
<path d="M255.999 114.759H141.241V44.1378H114.758V114.759H0V141.241H114.758V211.862H141.241V141.241H255.999V114.759Z" fill="#FF4B55"/>
<path d="M89.4737 150.068L0.125 208.067C0.437499 210.198 2.19499 211.862 4.41348 211.862H10.493L105.688 150.069H89.4737V150.068Z" fill="#FF4B55"/>
<path d="M173.193 150.068H156.979L252.035 211.77C254.251 211.534 255.999 209.725 255.999 207.447V203.818L173.193 150.068Z" fill="#FF4B55"/>
<path d="M0 53.4243L80.8892 105.931H97.1031L2.57149 44.5684C1.0615 45.2699 0 46.7773 0 48.5518V53.4243Z" fill="#FF4B55"/>
<path d="M166.282 105.931L255.846 47.7928C255.474 45.7318 253.754 44.1383 251.585 44.1383H245.262L150.068 105.931H166.282Z" fill="#FF4B55"/>
</svg>
