<svg width="284" height="119" viewBox="0 0 284 119" fill="none" xmlns="http://www.w3.org/2000/svg">
<path d="M51.3294 3.15436H79.4311V17.2059H75.1473V69.8134H51.0723L25.9693 31.1717V55.7619H30.0817V69.8134H1.97998V55.7619H6.26378V17.2059H1.97998V3.15436H32.909L55.4418 37.512V17.2059H51.3294V3.15436ZM108.08 71.0129C99.9689 71.0129 93.6289 68.8995 89.0595 64.6726C84.4901 60.3886 82.2054 54.1625 82.2054 45.9944C82.2054 37.8262 84.4901 31.6287 89.0595 27.4018C93.6289 23.1178 99.9689 20.9758 108.08 20.9758C116.133 20.9758 121.931 23.0892 125.472 27.3161C129.07 31.4859 130.869 36.6838 130.869 42.9099V49.0788H103.11V49.5929C103.11 51.7064 103.739 53.2772 104.995 54.3053C106.252 55.2764 108.337 55.7619 111.25 55.7619C114.734 55.7619 118.047 55.5048 121.188 54.9908C124.329 54.4767 127.071 53.8198 129.413 53.0201V66.7289C127.414 67.8142 124.472 68.8138 120.588 69.7277C116.761 70.5845 112.592 71.0129 108.08 71.0129ZM113.049 39.654V38.6259C113.049 36.6838 112.62 35.2844 111.764 34.4276C110.964 33.5708 109.736 33.1424 108.08 33.1424C106.423 33.1424 105.167 33.5993 104.31 34.5132C103.51 35.37 103.11 36.7409 103.11 38.6259V39.654H113.049ZM147.126 69.8134L136.331 36.2268H132.733V22.1753H159.207V36.2268H155.608L160.149 53.1915H161.006L165.547 36.2268H161.948V22.1753H186.794V36.2268H183.196L172.658 69.8134H147.126ZM214.756 71.0129C206.646 71.0129 200.306 68.8995 195.736 64.6726C191.167 60.3886 188.882 54.1625 188.882 45.9944C188.882 37.8262 191.167 31.6287 195.736 27.4018C200.306 23.1178 206.646 20.9758 214.756 20.9758C222.81 20.9758 228.607 23.0892 232.148 27.3161C235.747 31.4859 237.546 36.6838 237.546 42.9099V49.0788H209.787V49.5929C209.787 51.7064 210.415 53.2772 211.672 54.3053C212.929 55.2764 215.013 55.7619 217.926 55.7619C221.41 55.7619 224.723 55.5048 227.865 54.9908C231.006 54.4767 233.748 53.8198 236.09 53.0201V66.7289C234.09 67.8142 231.149 68.8138 227.265 69.7277C223.438 70.5845 219.269 71.0129 214.756 71.0129ZM219.725 39.654V38.6259C219.725 36.6838 219.297 35.2844 218.44 34.4276C217.641 33.5708 216.413 33.1424 214.756 33.1424C213.1 33.1424 211.843 33.5993 210.987 34.5132C210.187 35.37 209.787 36.7409 209.787 38.6259V39.654H219.725ZM276.678 20.9758C277.82 20.9758 278.905 21.09 279.933 21.3185C280.962 21.547 281.818 21.8326 282.504 22.1753V38.5402C280.162 37.5692 277.649 37.0836 274.964 37.0836C271.366 37.0836 268.596 38.0261 266.654 39.9111C264.712 41.796 263.741 44.5949 263.741 48.3077V55.7619H271.452V69.8134H240.265V55.7619H244.035V36.2268H240.265V22.1753H263.741V28.43C265.34 26.0309 267.168 24.2031 269.224 22.9464C271.28 21.6327 273.765 20.9758 276.678 20.9758Z" fill="black"/>
<path d="M41.4886 85.3754H39.2674V105.367H41.4886V112.653H24.6961V105.367H26.8285V98.037H20.609V105.367H22.7414V112.653H5.94885V105.367H8.17008V85.3754H5.94885V78.0895H22.7414V85.3754H20.609V92.1283H26.8285V85.3754H24.6961V78.0895H41.4886V85.3754ZM69.0693 105.367V112.653H57.3412V109.632C56.6896 110.58 55.7714 111.424 54.5869 112.165C53.4318 112.905 52.0102 113.275 50.3221 113.275C48.1009 113.275 46.3534 112.683 45.08 111.498C43.8064 110.314 43.1698 108.64 43.1698 106.478C43.1698 100.88 47.9232 98.0074 57.43 97.8593C57.3412 96.8523 56.9561 96.1711 56.275 95.8157C55.5937 95.4306 54.4387 95.2382 52.8099 95.2382C51.4771 95.2382 50.0406 95.3862 48.5007 95.6824C46.9903 95.949 45.5982 96.3192 44.3248 96.7931V88.6186C45.8944 88.2335 47.5973 87.9225 49.4336 87.6856C51.2698 87.4487 53.0615 87.3302 54.809 87.3302C59.2218 87.3302 62.3759 88.1299 64.2714 89.7293C66.1668 91.3286 67.1146 93.8018 67.1146 97.1485V105.367H69.0693ZM57.3412 102.258C56.0085 102.258 54.9718 102.435 54.2315 102.791C53.5207 103.146 53.1653 103.738 53.1653 104.568C53.1653 105.071 53.3133 105.486 53.6095 105.812C53.9353 106.108 54.3795 106.256 54.9423 106.256C55.7122 106.256 56.3045 105.93 56.7192 105.279C57.1338 104.627 57.3412 103.709 57.3412 102.524V102.258ZM75.8304 112.653L70.2329 95.2382H68.3671V87.9522H82.0943V95.2382H80.2284L82.5829 104.035H83.0272L85.3817 95.2382H83.5158V87.9522H96.399V95.2382H94.5331L89.0689 112.653H75.8304ZM110.898 113.275C106.692 113.275 103.405 112.179 101.035 109.988C98.6662 107.766 97.4815 104.538 97.4815 100.303C97.4815 96.0675 98.6662 92.8539 101.035 90.6622C103.405 88.4409 106.692 87.3302 110.898 87.3302C115.074 87.3302 118.08 88.4261 119.916 90.6178C121.782 92.7799 122.715 95.4751 122.715 98.7034V101.902H108.321V102.169C108.321 103.265 108.647 104.079 109.298 104.612C109.95 105.116 111.031 105.367 112.541 105.367C114.348 105.367 116.066 105.234 117.695 104.968C119.324 104.701 120.745 104.36 121.959 103.946V111.054C120.923 111.617 119.398 112.135 117.384 112.609C115.4 113.053 113.237 113.275 110.898 113.275ZM113.474 97.0152V96.4821C113.474 95.4751 113.252 94.7495 112.808 94.3052C112.393 93.8609 111.757 93.6388 110.898 93.6388C110.039 93.6388 109.387 93.8757 108.943 94.3496C108.528 94.7939 108.321 95.5047 108.321 96.4821V97.0152H113.474ZM137.444 112.653V105.367H139.665V85.3754H137.444V78.0895H154.325V85.3754H152.104V105.367H154.325V112.653H137.444ZM169.418 112.653V105.367H171.639V85.3754H169.418V78.0895H199.404V91.5063H189.453V85.3754H184.078V92.3949H187.987V97.4595H184.078V105.367H189.453V98.348H199.404V112.653H169.418ZM208.107 112.653L202.509 95.2382H200.644V87.9522H214.371V95.2382H212.505L214.859 104.035H215.304L217.658 95.2382H215.792V87.9522H228.676V95.2382H226.81L221.345 112.653H208.107ZM243.174 113.275C238.968 113.275 235.68 112.179 233.312 109.988C230.943 107.766 229.758 104.538 229.758 100.303C229.758 96.0675 230.943 92.8539 233.312 90.6622C235.68 88.4409 238.968 87.3302 243.174 87.3302C247.35 87.3302 250.356 88.4261 252.192 90.6178C254.058 92.7799 254.991 95.4751 254.991 98.7034V101.902H240.597V102.169C240.597 103.265 240.922 104.079 241.575 104.612C242.227 105.116 243.307 105.367 244.818 105.367C246.625 105.367 248.341 105.234 249.971 104.968C251.6 104.701 253.022 104.36 254.236 103.946V111.054C253.2 111.617 251.673 112.135 249.66 112.609C247.675 113.053 245.514 113.275 243.174 113.275ZM245.75 97.0152V96.4821C245.75 95.4751 245.528 94.7495 245.084 94.3052C244.67 93.8609 244.032 93.6388 243.174 93.6388C242.315 93.6388 241.663 93.8757 241.219 94.3496C240.805 94.7939 240.597 95.5047 240.597 96.4821V97.0152H245.75ZM275.282 87.3302C275.873 87.3302 276.437 87.3894 276.97 87.5079C277.503 87.6265 277.947 87.7745 278.303 87.9522V96.4377C277.089 95.9342 275.785 95.6824 274.393 95.6824C272.527 95.6824 271.091 96.1711 270.084 97.1485C269.077 98.1259 268.574 99.5772 268.574 101.502V105.367H272.572V112.653H256.401V105.367H258.356V95.2382H256.401V87.9522H268.574V91.1953C269.403 89.9514 270.351 89.0037 271.417 88.352C272.483 87.6709 273.771 87.3302 275.282 87.3302Z" fill="white"/>
</svg>
