<svg width="238" height="141" viewBox="0 0 238 141" fill="none" xmlns="http://www.w3.org/2000/svg">
<path d="M62.6392 47H59.6392V59C57.8792 60 55.2992 60.9 51.8992 61.7C48.5392 62.46 44.8992 62.84 40.9792 62.84C33.4992 62.84 27.6392 60.88 23.3992 56.96C19.1592 53 17.0392 46.9 17.0392 38.66C17.0392 30.22 19.1392 24.08 23.3392 20.24C27.5792 16.4 33.6192 14.48 41.4592 14.48C45.2592 14.48 48.8192 14.88 52.1392 15.68C55.4592 16.48 57.9592 17.38 59.6392 18.38V32.72H44.6392V29.9C44.6392 28.22 44.2792 27.02 43.5592 26.3C42.8792 25.54 41.7792 25.16 40.2592 25.16C38.7392 25.16 37.6192 25.54 36.8992 26.3C36.2192 27.02 35.8792 28.22 35.8792 29.9V47.42C35.8792 49.1 36.2192 50.32 36.8992 51.08C37.6192 51.8 38.7392 52.16 40.2592 52.16C41.7792 52.16 42.8792 51.8 43.5592 51.08C44.2792 50.32 44.6392 49.1 44.6392 47.42V47H41.3992V38.06H62.6392V47ZM108.373 52.16H110.773V62H87.2528V52.16H90.8528L89.8928 47.36H81.7328L80.7728 52.16H84.3728V62H63.8528V52.16H66.2528L76.3928 15.32H98.2328L108.373 52.16ZM83.0528 41H88.5728L86.1128 29.06H85.5128L83.0528 41ZM178.853 25.16H175.853V52.16H178.853V62H156.173V52.16H159.053V31.16L148.853 62H139.973L129.473 31.46V52.16H132.353V62H112.673V52.16H115.673V25.16H112.673V15.32H140.153L146.393 34.04L152.393 15.32H178.853V25.16ZM181.227 62V52.16H184.227V25.16H181.227V15.32H221.727V33.44H208.287V25.16H201.027V34.64H206.307V41.48H201.027V52.16H208.287V42.68H221.727V62H181.227Z" fill="#D01615"/>
<path d="M53.4006 122.812C46.3246 122.812 40.8533 120.956 36.9866 117.244C33.1586 113.532 31.2446 107.597 31.2446 99.438C31.2446 91.2793 33.1586 85.344 36.9866 81.632C40.8533 77.92 46.3246 76.064 53.4006 76.064C60.4766 76.064 65.9286 77.92 69.7566 81.632C73.6233 85.344 75.5566 91.2793 75.5566 99.438C75.5566 107.597 73.6233 113.532 69.7566 117.244C65.9286 120.956 60.4766 122.812 53.4006 122.812ZM53.4006 112.488C54.7153 112.488 55.7013 112.14 56.3586 111.444C57.016 110.748 57.3446 109.665 57.3446 108.196V90.68C57.3446 89.2107 57.016 88.128 56.3586 87.432C55.7013 86.736 54.7153 86.388 53.4006 86.388C52.086 86.388 51.1 86.736 50.4426 87.432C49.7853 88.128 49.4566 89.2107 49.4566 90.68V108.196C49.4566 109.704 49.7853 110.806 50.4426 111.502C51.1 112.159 52.086 112.488 53.4006 112.488ZM100.755 76.876H120.127V86.388H117.807L107.425 122H88.6334L78.2514 86.388H75.9314V76.876H98.2034V86.388H95.1874L99.1894 105.818H99.7694L103.771 86.388H100.755V76.876ZM121.991 122V112.488H124.891V86.388H121.991V76.876H161.141V94.392H148.149V86.388H141.131V95.552H146.235V102.164H141.131V112.488H148.149V103.324H161.141V122H121.991ZM163.339 112.488H166.239V86.388H163.339V76.876H189.961C194.949 76.876 198.757 77.9007 201.387 79.95C204.016 81.9993 205.331 85.3247 205.331 89.926C205.331 92.5167 204.809 94.7593 203.765 96.654C202.721 98.5487 201.232 99.8633 199.299 100.598L199.357 101.178C203.069 101.758 204.925 104.039 204.925 108.022V112.488H207.651V122H189.265V108.37C189.265 106.862 189.033 105.721 188.569 104.948C188.143 104.175 187.447 103.653 186.481 103.382C185.553 103.111 184.219 102.976 182.479 102.976V112.488H186.307V122H163.339V112.488ZM185.611 95.9C186.732 95.9 187.563 95.61 188.105 95.03C188.685 94.4113 188.975 93.464 188.975 92.188V90.1C188.975 88.824 188.685 87.896 188.105 87.316C187.563 86.6973 186.732 86.388 185.611 86.388H182.479V95.9H185.611Z" fill="white"/>
</svg>
